<?xml version="1.0" standalone="no"?>
<!DOCTYPE svg PUBLIC "-//W3C//DTD SVG 20010904//EN"
 "http://www.w3.org/TR/2001/REC-SVG-20010904/DTD/svg10.dtd">
<svg version="1.0" xmlns="http://www.w3.org/2000/svg"
 width="512.000000pt" height="512.000000pt" viewBox="0 0 512.000000 512.000000"
 preserveAspectRatio="xMidYMid meet">

<g transform="translate(0.000000,512.000000) scale(0.100000,-0.100000)"
fill="#000000" stroke="none">
<path d="M2406 5103 c-373 -79 -632 -439 -586 -814 18 -148 77 -283 177 -406
l35 -42 -574 -3 -573 -3 -57 -27 c-76 -35 -148 -104 -182 -173 -23 -47 -70
-292 -317 -1648 -232 -1274 -289 -1602 -285 -1644 15 -133 94 -246 214 -305
l67 -33 2235 0 2235 0 67 33 c134 66 211 188 211 332 0 54 -78 505 -286 1643
-268 1468 -288 1572 -318 1628 -39 72 -102 132 -177 167 l-57 27 -572 3 -573
3 55 71 c110 146 159 286 158 463 -1 134 -24 231 -84 346 -76 145 -234 289
-385 348 -128 50 -295 63 -428 34z m257 -318 c84 -22 134 -51 197 -114 164
-164 168 -418 9 -586 -87 -92 -185 -135 -309 -135 -260 0 -465 240 -420 491
45 249 285 406 523 344z m1511 -1278 c14 -10 73 -322 301 -1577 263 -1445 284
-1566 270 -1587 l-15 -23 -2170 0 -2170 0 -15 23 c-14 21 7 142 270 1587 228
1255 287 1567 301 1577 26 19 3202 19 3228 0z"/>
<path d="M1360 2748 c-18 -13 -43 -36 -54 -51 -21 -28 -21 -33 -21 -777 0
-744 0 -749 21 -777 73 -98 195 -98 268 0 19 26 21 46 26 215 l5 187 195 -185
c304 -288 304 -287 349 -300 132 -35 239 104 175 230 -7 14 -154 160 -328 324
-174 165 -316 302 -316 305 0 4 128 125 284 270 355 328 371 344 380 400 9 56
-24 126 -73 158 -40 27 -108 30 -154 8 -18 -9 -140 -117 -272 -240 l-240 -224
-5 189 c-5 171 -7 191 -26 217 -35 48 -82 73 -134 73 -32 0 -57 -7 -80 -22z"/>
<path d="M3173 2755 c-179 -50 -321 -186 -376 -360 -21 -67 -22 -85 -22 -475
0 -390 1 -408 22 -475 44 -139 147 -258 277 -321 90 -43 161 -57 266 -52 187
10 348 114 435 279 52 99 67 179 63 336 -3 143 -9 161 -72 207 -26 20 -41 21
-246 21 -205 0 -220 -1 -246 -21 -53 -39 -69 -71 -69 -134 0 -63 16 -95 69
-134 23 -18 45 -22 137 -24 124 -4 127 -7 90 -87 -72 -158 -295 -167 -381 -15
l-25 45 0 375 c0 365 1 376 22 415 41 77 105 115 193 115 56 0 100 -18 143
-59 45 -41 60 -80 67 -174 5 -65 12 -95 27 -115 72 -97 195 -96 267 1 16 22
22 47 24 105 11 236 -133 454 -353 534 -77 28 -236 34 -312 13z"/>
</g>
</svg>
